<svg xmlns="http://www.w3.org/2000/svg"  viewBox="0 0 32 32" width="50px" height="50px"><path d="M 16 3 C 8.1509281 3 1.9166572 10.007369 3.1601562 18.066406 C 4.1556452 24.520331 9.7297114 28.998047 16.224609 28.998047 C 19.922733 28.998047 22.890346 27.494154 24.923828 25.21875 C 26.95731 22.943346 28.089833 19.93494 28.369141 16.853516 C 28.414861 16.345058 28.326931 15.715078 27.960938 15.203125 C 27.594942 14.691172 27.052591 14.349863 26.357422 14.060547 A 1.0001 1.0001 0 0 0 26.357422 14.058594 C 24.962739 13.479603 22.998942 13.137012 20.947266 13.029297 C 18.89559 12.921582 16.796146 13.049257 15.150391 13.623047 A 1.0001 1.0001 0 0 0 14.587891 14.115234 C 13.98008 15.313971 13.683582 16.937312 14.546875 18.345703 A 1.0001 1.0001 0 0 0 14.912109 18.697266 C 16.241406 19.438543 17.978862 19.645228 19.453125 19.755859 C 19.917315 19.790689 19.915114 19.766484 20.296875 19.777344 C 20.030829 20.175403 19.867612 20.666534 19.503906 20.964844 C 18.743109 21.588901 17.749692 22 16.265625 22 C 12.247106 22 10.005608 19.285107 10.046875 15.847656 C 10.090055 12.247675 12.670692 10.386092 15.042969 10.003906 C 16.833578 9.7153807 19.20045 10.084346 21.320312 11.064453 A 1.0001 1.0001 0 0 0 21.984375 11.126953 C 22.729142 10.938676 23.47489 10.596921 24.060547 9.9824219 C 24.646204 9.3679223 25.027308 8.5145228 25.177734 7.4726562 A 1.0001 1.0001 0 0 0 24.966797 6.7011719 C 23.335754 4.6802245 20.155601 3 16 3 z M 16 5 C 19.340623 5 21.731337 6.332778 23.001953 7.6640625 C 22.886654 8.0196201 22.785252 8.4210265 22.611328 8.6035156 C 22.389917 8.8358307 22.055605 8.9746938 21.667969 9.0976562 C 19.353065 8.1216523 16.880118 7.6819738 14.724609 8.0292969 C 13.189773 8.2765668 11.621333 9.0568428 10.380859 10.275391 C 9.5887253 10.191582 8.6005541 9.5719609 8.0351562 8.515625 C 10.040337 6.3874777 12.833294 5 16 5 z M 6.6191406 10.300781 C 7.2996408 11.212594 8.2543007 11.594099 9.2226562 11.900391 C 8.5646663 13.011987 8.0655473 14.265609 8.046875 15.822266 C 8.024818 17.659558 8.6997716 19.314958 9.7265625 20.707031 C 9.4102656 21.831797 8.7401336 22.550676 7.7285156 23.044922 C 6.4606947 21.570612 5.4590325 19.851334 5.1367188 17.761719 C 4.7101577 14.997205 5.330795 12.421925 6.6191406 10.300781 z M 19.566406 15.009766 C 19.983914 14.99933 20.411558 15.004756 20.841797 15.027344 C 22.723371 15.126124 24.580527 15.487241 25.589844 15.90625 C 26.093674 16.115934 26.283729 16.29689 26.333984 16.367188 C 26.384244 16.437487 26.397233 16.448288 26.376953 16.673828 C 26.141592 19.270425 25.167345 21.738828 23.601562 23.609375 C 23.092184 22.76681 22.425281 22.101423 21.597656 21.583984 C 22.217057 20.837248 22.724194 20.025629 23.039062 19.171875 A 1.0001 1.0001 0 0 0 22.066406 17.826172 C 22.066406 17.826172 20.959049 17.863579 19.601562 17.761719 C 18.354716 17.668149 16.995966 17.378117 16.189453 17.015625 C 16.01329 16.550107 16.046419 16.018983 16.238281 15.470703 C 17.147798 15.212521 18.313882 15.041073 19.566406 15.009766 z M 11.144531 22.158203 C 12.512462 23.239081 14.193647 24 16.265625 24 C 17.803867 24 19.033329 23.545274 20.064453 22.902344 C 20.993407 23.285049 21.628872 23.956321 22.095703 24.878906 C 20.544391 26.106188 18.700137 26.998047 16.224609 26.998047 C 13.479345 26.998047 10.971558 26.075573 9.0175781 24.503906 C 9.9580857 23.917783 10.663683 23.142446 11.144531 22.158203 z"/></svg>